<svg width="108" height="77" viewBox="0 0 108 77" fill="none" xmlns="http://www.w3.org/2000/svg">
<mask id="path-1-inside-1_1102_7264" fill="white">
<path d="M12.6803 18.8784V38.7952H44.2872V45.2898H12.6803V66.5054H52.9467V73H0.124053V12.3839H52.9467V18.8784H12.6803ZM107.065 18.8784H83.6843V73H71.1281V18.8784H47.7476V12.3839H107.065V18.8784Z"/>
</mask>
<path d="M12.6803 18.8784V38.7952H44.2872V45.2898H12.6803V66.5054H52.9467V73H0.124053V12.3839H52.9467V18.8784H12.6803ZM107.065 18.8784H83.6843V73H71.1281V18.8784H47.7476V12.3839H107.065V18.8784Z" fill="white"/>
<path d="M12.6803 18.8784V17.8784H11.6803V18.8784H12.6803ZM12.6803 38.7952H11.6803V39.7952H12.6803V38.7952ZM44.2872 38.7952H45.2872V37.7952H44.2872V38.7952ZM44.2872 45.2898V46.2898H45.2872V45.2898H44.2872ZM12.6803 45.2898V44.2898H11.6803V45.2898H12.6803ZM12.6803 66.5054H11.6803V67.5054H12.6803V66.5054ZM52.9467 66.5054H53.9467V65.5054H52.9467V66.5054ZM52.9467 73V74H53.9467V73H52.9467ZM0.124054 73H-0.875946V74H0.124054V73ZM0.124054 12.3839V11.3839H-0.875946V12.3839H0.124054ZM52.9467 12.3839H53.9467V11.3839H52.9467V12.3839ZM52.9467 18.8784V19.8784H53.9467V18.8784H52.9467ZM11.6803 18.8784V38.7952H13.6803V18.8784H11.6803ZM12.6803 39.7952H44.2872V37.7952H12.6803V39.7952ZM43.2872 38.7952V45.2898H45.2872V38.7952H43.2872ZM44.2872 44.2898H12.6803V46.2898H44.2872V44.2898ZM11.6803 45.2898V66.5054H13.6803V45.2898H11.6803ZM12.6803 67.5054H52.9467V65.5054H12.6803V67.5054ZM51.9467 66.5054V73H53.9467V66.5054H51.9467ZM52.9467 72H0.124054V74H52.9467V72ZM1.12405 73V12.3839H-0.875946V73H1.12405ZM0.124054 13.3839H52.9467V11.3839H0.124054V13.3839ZM51.9467 12.3839V18.8784H53.9467V12.3839H51.9467ZM52.9467 17.8784H12.6803V19.8784H52.9467V17.8784ZM107.065 18.8784V19.8784H108.065V18.8784H107.065ZM83.6843 18.8784V17.8784H82.6843V18.8784H83.6843ZM83.6843 73V74H84.6843V73H83.6843ZM71.1281 73H70.1281V74H71.1281V73ZM71.1281 18.8784H72.1281V17.8784H71.1281V18.8784ZM47.7476 18.8784H46.7476V19.8784H47.7476V18.8784ZM47.7476 12.3839V11.3839H46.7476V12.3839H47.7476ZM107.065 12.3839H108.065V11.3839H107.065V12.3839ZM107.065 17.8784H83.6843V19.8784H107.065V17.8784ZM82.6843 18.8784V73H84.6843V18.8784H82.6843ZM83.6843 72H71.1281V74H83.6843V72ZM72.1281 73V18.8784H70.1281V73H72.1281ZM71.1281 17.8784H47.7476V19.8784H71.1281V17.8784ZM48.7476 18.8784V12.3839H46.7476V18.8784H48.7476ZM47.7476 13.3839H107.065V11.3839H47.7476V13.3839ZM106.065 12.3839V18.8784H108.065V12.3839H106.065Z" fill="white" mask="url(#path-1-inside-1_1102_7264)"/>
</svg>
